<?xml version="1.0" encoding="UTF-8" standalone="no"?>
<svg
   xmlns:dc="http://purl.org/dc/elements/1.1/"
   xmlns:cc="http://creativecommons.org/ns#"
   xmlns:rdf="http://www.w3.org/1999/02/22-rdf-syntax-ns#"
   xmlns:svg="http://www.w3.org/2000/svg"
   xmlns="http://www.w3.org/2000/svg"
   xmlns:xlink="http://www.w3.org/1999/xlink"
   xmlns:sodipodi="http://sodipodi.sourceforge.net/DTD/sodipodi-0.dtd"
   xmlns:inkscape="http://www.inkscape.org/namespaces/inkscape"
   version="1.1"
   id="Livello_1"
   x="0px"
   y="0px"
   width="100.0px"
   height="100px"
   viewBox="0 0 156 156"
   enable-background="new 0 0 156 156"
   xml:space="preserve"
   inkscape:version="0.48.4 r9939"
   sodipodi:docname="serilog-js.svg"
   inkscape:export-filename="C:\Development\Continuous IT\seq-client\asset\seq-client-serilog.png"
   inkscape:export-xdpi="114.98"
   inkscape:export-ydpi="114.98"><metadata
   id="metadata15"><rdf:RDF><cc:Work
       rdf:about=""><dc:format>image/svg+xml</dc:format><dc:type
         rdf:resource="http://purl.org/dc/dcmitype/StillImage" /><dc:title></dc:title></cc:Work></rdf:RDF></metadata><defs
   id="defs13"><linearGradient
     id="linearGradient3756"><stop
       style="stop-color:#ffef78;stop-opacity:1;"
       offset="0"
       id="stop3758" /><stop
       id="stop3764"
       offset="0.3611111"
       style="stop-color:#ffe94b;stop-opacity:1;" /><stop
       style="stop-color:#ffe41f;stop-opacity:1;"
       offset="1"
       id="stop3760" /></linearGradient><radialGradient
     inkscape:collect="always"
     xlink:href="#linearGradient3756"
     id="radialGradient3762"
     cx="-98.917816"
     cy="-56.210613"
     fx="-98.917816"
     fy="-56.210613"
     r="78"
     gradientUnits="userSpaceOnUse" /></defs><sodipodi:namedview
   pagecolor="#000000"
   bordercolor="#666666"
   borderopacity="1"
   objecttolerance="10"
   gridtolerance="10"
   guidetolerance="10"
   inkscape:pageopacity="1"
   inkscape:pageshadow="2"
   inkscape:window-width="1440"
   inkscape:window-height="841"
   id="namedview11"
   showgrid="false"
   inkscape:zoom="3.5797234"
   inkscape:cx="171.26108"
   inkscape:cy="32.382237"
   inkscape:window-x="-8"
   inkscape:window-y="-8"
   inkscape:window-maximized="1"
   inkscape:current-layer="Livello_1" />

<rect
   y="-156.43579"
   x="-156"
   height="156"
   width="156"
   id="rect3761"
   style="fill:url(#radialGradient3762);fill-opacity:1;stroke:none"
   inkscape:export-filename="C:\Development\Open Source\serilog.js\assets\serilog-js.png"
   inkscape:export-xdpi="115.2"
   inkscape:export-ydpi="115.2"
   transform="scale(-1,-1)"
   inkscape:transform-center-x="24.303554"
   inkscape:transform-center-y="20.392637" /><g
   id="g3026"
   style="fill:#000000"
   transform="matrix(1.2425961,0.27239361,-0.22460077,1.3198432,-14.851464,-47.878528)"><path
     d="m 131.03465,22.558212 c -40.895377,39.81269 -66.213317,62.66803 -70.017157,66.69511 -3.79959,4.02256 -5.22104,8.85795 -3.17403,10.791458 2.05153,1.93781 6.79468,0.23999 10.59424,-3.782568 3.80392,-4.02487 27.42742,-32.16308 62.596947,-73.704 z m -70.261457,74.73251 c -0.98439,-0.92982 0.10062,-3.66882 2.41234,-6.11615 2.31593,-2.45185 4.98768,-3.68784 5.97091,-2.75911 0.9787,0.92446 -0.10421,3.6612 -2.42015,6.11306 -2.31166,2.44733 -4.9844,3.68664 -5.9631,2.7622 z"
     id="path3780"
     inkscape:connector-curvature="0"
     style="fill:#000000" /><g
     id="g3782"
     transform="matrix(1.1340716,1.0712056,-1.0712056,1.1340716,105.15797,4.9271036)"
     style="fill:#000000"><path
       d="m 28.409,83.23 c -0.605,0 -2.667,-0.168 -4.76,-2.105 -3.259,-3.02 -4.914,-8.717 -4.914,-16.933 0,-0.726 0.586,-1.312 1.312,-1.312 0.726,0 1.312,0.587 1.312,1.312 0,9.182 2.17,13.187 3.99,14.93 1.598,1.527 3.082,1.484 3.15,1.481 2.43,-0.004 4.385,-0.84 6.059,-2.559 6.132,-6.294 16.631725,-11.576738 18.389298,-12.081713 -0.019,-0.725 -0.97468,1.942417 -0.25168,1.922417 0.739,-0.017 0.414857,0.354168 0.434857,1.077168 0.021,0.678 -9.786475,3.819128 -16.689475,10.910128 -2.162,2.224 -4.809,3.351 -7.862,3.351 -0.021,0.005 -0.079,0.007 -0.17,0.007 z"
       id="path3784"
       inkscape:connector-curvature="0"
       style="fill:#000000"
       sodipodi:nodetypes="scsssccccccccs" /></g></g></svg>